<svg width="14" height="10" viewBox="0 0 14 10" fill="none" xmlns="http://www.w3.org/2000/svg">
<path fill-rule="evenodd" clip-rule="evenodd" d="M14.001 5.00112C14.001 5.13373 13.9483 5.26091 13.8545 5.35467C13.7608 5.44844 13.6336 5.50112 13.501 5.50112L1.70798 5.50112L4.85498 8.64712C4.94886 8.74101 5.00161 8.86834 5.00161 9.00112C5.00161 9.1339 4.94886 9.26123 4.85498 9.35512C4.76109 9.44901 4.63375 9.50175 4.50098 9.50175C4.3682 9.50175 4.24086 9.44901 4.14698 9.35512L0.146977 5.35512C0.100414 5.30867 0.063471 5.2535 0.0382645 5.19275C0.0130579 5.13201 8.31693e-05 5.06689 8.31664e-05 5.00112C8.31635e-05 4.93535 0.0130579 4.87023 0.0382645 4.80949C0.063471 4.74874 0.100414 4.69357 0.146977 4.64712L4.14698 0.64712C4.24086 0.553234 4.3682 0.500489 4.50098 0.500489C4.63375 0.500489 4.76109 0.553234 4.85498 0.64712C4.94886 0.741007 5.00161 0.868344 5.00161 1.00112C5.00161 1.1339 4.94886 1.26123 4.85498 1.35512L1.70798 4.50112L13.501 4.50112C13.6336 4.50112 13.7608 4.5538 13.8545 4.64757C13.9483 4.74133 14.001 4.86851 14.001 5.00112Z" fill="white"/>
</svg>
