<svg width="20" height="19" viewBox="0 0 20 19" fill="none" xmlns="http://www.w3.org/2000/svg">
<path d="M16.6502 0.949951H3.3502C2.3052 0.949951 1.4502 1.80495 1.4502 2.84995V16.15C1.4502 17.1959 2.3052 18.05 3.3502 18.05H10.0002V11.4H8.1002V9.0487H10.0002V7.1012C10.0002 5.0454 11.1516 3.6014 13.5779 3.6014L15.2907 3.6033V6.07805H14.1536C13.2093 6.07805 12.8502 6.78675 12.8502 7.44415V9.04965H15.2898L14.7502 11.4H12.8502V18.05H16.6502C17.6952 18.05 18.5502 17.1959 18.5502 16.15V2.84995C18.5502 1.80495 17.6952 0.949951 16.6502 0.949951Z" fill="white"/>
</svg>
