<svg width="21" height="20" viewBox="0 0 21 20" fill="none" xmlns="http://www.w3.org/2000/svg">
<path d="M17.0625 18.75H9.1875C8.8394 18.75 8.50556 18.6183 8.25942 18.3839C8.01328 18.1495 7.875 17.8315 7.875 17.5V15.625H9.1875V17.5H17.0625V2.5H9.1875V4.375H7.875V2.5C7.875 2.16848 8.01328 1.85054 8.25942 1.61612C8.50556 1.3817 8.8394 1.25 9.1875 1.25H17.0625C17.4106 1.25 17.7444 1.3817 17.9906 1.61612C18.2367 1.85054 18.375 2.16848 18.375 2.5V17.5C18.375 17.8315 18.2367 18.1495 17.9906 18.3839C17.7444 18.6183 17.4106 18.75 17.0625 18.75Z" fill="#DEDEDE"/>
<path d="M9.57469 12.8688L11.9241 10.625H2.625V9.375H11.9241L9.57469 7.13125L10.5 6.25L14.4375 10L10.5 13.75L9.57469 12.8688Z" fill="#DEDEDE"/>
</svg>
