<svg width="20" height="19" viewBox="0 0 20 19" fill="none" xmlns="http://www.w3.org/2000/svg">
<g clip-path="url(#clip0_205_468)">
<path d="M16.3333 5.96224C15.8715 6.1684 15.3726 6.30859 14.8366 6.38281C15.3974 6.05295 15.7808 5.57053 15.987 4.93555C15.451 5.24892 14.8984 5.4592 14.3294 5.56641C13.8264 5.02214 13.1955 4.75 12.4368 4.75C11.7194 4.75 11.1071 5.00358 10.5999 5.51074C10.0928 6.0179 9.83919 6.63021 9.83919 7.34766C9.83919 7.58681 9.85981 7.78472 9.90104 7.94141C8.83724 7.88368 7.83941 7.61567 6.90755 7.13737C5.97569 6.65907 5.18403 6.01997 4.53255 5.22005C4.2934 5.63238 4.17383 6.06944 4.17383 6.53125C4.17383 7.47135 4.54905 8.19293 5.29948 8.69596C4.91189 8.68772 4.49957 8.58051 4.0625 8.37435V8.39909C4.0625 9.01758 4.26866 9.56803 4.68099 10.0505C5.09332 10.5329 5.60048 10.8318 6.20247 10.9473C5.96332 11.0132 5.75304 11.0462 5.57161 11.0462C5.46441 11.0462 5.3036 11.0297 5.08919 10.9967C5.26237 11.5163 5.56955 11.9451 6.01074 12.2832C6.45193 12.6213 6.95291 12.7945 7.51367 12.8027C6.55707 13.5449 5.4809 13.916 4.28516 13.916C4.07075 13.916 3.86458 13.9036 3.66667 13.8789C4.88715 14.6541 6.21484 15.0417 7.64974 15.0417C8.57335 15.0417 9.43924 14.8953 10.2474 14.6025C11.0556 14.3098 11.7483 13.9181 12.3255 13.4274C12.9028 12.9367 13.3996 12.3719 13.8161 11.7327C14.2325 11.0936 14.5418 10.4257 14.7438 9.72884C14.9459 9.03201 15.0469 8.33724 15.0469 7.64453C15.0469 7.49609 15.0428 7.38477 15.0345 7.31055C15.554 6.93945 15.987 6.49002 16.3333 5.96224ZM19.5 3.5625V15.4375C19.5 16.4188 19.1516 17.2579 18.4548 17.9548C17.7579 18.6516 16.9188 19 15.9375 19H4.0625C3.08116 19 2.24208 18.6516 1.54525 17.9548C0.848416 17.2579 0.5 16.4188 0.5 15.4375V3.5625C0.5 2.58116 0.848416 1.74208 1.54525 1.04525C2.24208 0.348416 3.08116 0 4.0625 0H15.9375C16.9188 0 17.7579 0.348416 18.4548 1.04525C19.1516 1.74208 19.5 2.58116 19.5 3.5625Z" fill="white"/>
</g>
<defs>
<clipPath id="clip0_205_468">
<rect width="19" height="19" fill="white" transform="translate(0.5)"/>
</clipPath>
</defs>
</svg>
